<?xml version="1.0" encoding="UTF-8" standalone="no"?>
<!-- Created with Inkscape (http://www.inkscape.org/) -->
<svg
   xmlns:svg="http://www.w3.org/2000/svg"
   xmlns="http://www.w3.org/2000/svg"
   version="1.0"
   width="401.74014"
   height="488.23227"
   id="svg1903">
  <defs
     id="defs1905" />
  <g
     transform="translate(-171.1264,-231.669)"
     id="layer1">
    <g
       transform="translate(925.8326,120.8762)"
       id="g3963">
      <g
         transform="matrix(2.914897,0,0,2.914897,-717.5904,128.5015)"
         style="fill:black;fill-opacity:1;fill-rule:nonzero;stroke:none;stroke-miterlimit:4"
         id="g3771">
        <g
           style="fill:black;fill-opacity:1"
           id="g3773">
          <path
             d="M 86.068,0 C 61.466,0 56.851,35.041 70.691,35.041 C 84.529,35.041 110.671,0 86.068,0 z "
             style="fill:black;fill-opacity:1"
             id="path3775" />
          <path
             d="M 45.217,30.699 C 52.586,31.149 60.671,2.577 46.821,4.374 C 32.976,6.171 37.845,30.249 45.217,30.699 z "
             style="fill:black;fill-opacity:1"
             id="path3777" />
          <path
             d="M 11.445,48.453 C 16.686,46.146 12.12,23.581 3.208,29.735 C -5.7,35.89 6.204,50.759 11.445,48.453 z "
             style="fill:black;fill-opacity:1"
             id="path3779" />
          <path
             d="M 26.212,36.642 C 32.451,35.37 32.793,9.778 21.667,14.369 C 10.539,18.961 19.978,37.916 26.212,36.642 L 26.212,36.642 z "
             style="fill:black;fill-opacity:1"
             id="path3781" />
          <path
             d="M 58.791,93.913 C 59.898,102.367 52.589,106.542 45.431,101.092 C 22.644,83.743 83.16,75.088 79.171,51.386 C 75.86,31.712 15.495,37.769 8.621,68.553 C 3.968,89.374 27.774,118.26 52.614,118.26 C 64.834,118.26 78.929,107.226 81.566,93.248 C 83.58,82.589 57.867,86.86 58.791,93.913 L 58.791,93.913 z "
             style="fill:black;fill-opacity:1"
             id="path3783" />
        </g>
      </g>
      <g
         transform="matrix(1.098291,0,0,1.098291,41.06056,-50.07504)"
         id="g3956">
        <path
           d="M -565.99523,509.46063 C -574.08254,509.67855 -580.46917,512.58511 -585.16594,518.15929 C -590.02979,523.9603 -592.47618,531.9758 -592.47618,542.19791 C -592.47618,552.39185 -590.02967,560.38536 -585.16594,566.18637 C -580.27833,571.98737 -573.56779,574.88503 -565.0083,574.88503 C -556.4252,574.88503 -549.6978,571.98737 -544.83394,566.18637 C -539.97021,560.38536 -537.54036,552.39185 -537.54041,542.19791 C -537.54046,531.9758 -539.97021,523.9603 -544.83394,518.15929 C -549.6978,512.35854 -556.42525,509.46063 -565.0083,509.46063 C -565.34264,509.46063 -565.6665,509.45174 -565.99523,509.46063 z M -565.39302,521.23732 C -565.26375,521.23386 -565.13945,521.23732 -565.0083,521.23732 C -560.78832,521.23732 -557.51834,523.06342 -555.2055,526.72429 C -552.89284,530.38515 -551.72606,535.55217 -551.72601,542.19791 C -551.72601,548.81548 -552.89293,553.94395 -555.2055,557.60482 C -557.51824,561.26568 -560.78836,563.10834 -565.0083,563.10834 C -569.20462,563.10834 -572.44813,561.26568 -574.76087,557.60482 C -577.07361,553.94395 -578.24031,548.81548 -578.24036,542.19791 C -578.24036,535.55217 -577.07352,530.38515 -574.76087,526.72429 C -572.52052,523.17782 -569.40124,521.34825 -565.39302,521.23732 z "
           style="font-size:148.699646px;font-style:normal;font-variant:normal;font-weight:bold;font-stretch:normal;text-align:start;line-height:125%;writing-mode:lr-tb;text-anchor:start;fill:black;fill-opacity:1;stroke:none;stroke-width:1pt;stroke-linecap:butt;stroke-linejoin:miter;stroke-opacity:1;font-family:Bitstream Vera Sans"
           id="path3787" />
        <path
           d="M -657.35432,568.97161 C -664.47794,574.95396 -675.07651,574.88527 -679.49184,574.88527 C -688.38504,574.88527 -695.43039,571.95648 -700.62797,566.09915 C -705.82562,560.2139 -708.42437,552.24459 -708.42437,542.19124 C -708.42437,532.02546 -705.77791,524.02799 -700.48492,518.19883 C -695.19192,512.36991 -687.94394,509.4552 -678.74079,509.4552 C -675.18834,509.4552 -671.79088,509.84953 -668.54825,510.63793 C -665.28187,511.42634 -662.20622,512.59499 -659.32128,514.14388 L -663.02615,525.09658 C -664.648,524.20885 -666.50495,523.33372 -668.22637,522.71851 C -671.15899,521.73294 -674.10349,521.24028 -677.05988,521.24028 C -682.54367,521.24028 -686.77569,523.05651 -689.75589,526.6892 C -692.71238,530.29374 -694.19059,535.461 -694.19059,542.19124 C -694.19059,548.86539 -692.76009,554.01857 -689.89892,557.65127 C -687.03793,561.28397 -682.73824,563.10019 -677.7037,563.10019 C -672.58894,563.10019 -669.42101,561.81097 -667.73144,560.45257 L -667.73144,549.54113 L -678.81231,549.54113 L -678.81231,538.64304 L -657.35432,538.64304"
           style="font-size:148.699646px;font-style:normal;font-variant:normal;font-weight:bold;font-stretch:normal;text-align:start;line-height:125%;writing-mode:lr-tb;text-anchor:start;fill:black;fill-opacity:1;stroke:none;stroke-width:1pt;stroke-linecap:butt;stroke-linejoin:miter;stroke-opacity:1;font-family:Bitstream Vera Sans"
           id="path3789" />
        <path
           d="M -528.50252,510.59568 L -510.97842,510.59568 L -498.8189,549.96634 L -486.58785,510.59568 L -471.77604,510.59568 L -465.08472,573.66029 L -478.10259,573.66029 L -482.11739,534.22539 L -494.41996,573.8493 L -503.14624,573.8493 L -515.44887,532.887 L -519.46366,573.66029 L -532.51731,573.66029 L -525.82599,510.59568"
           style="font-size:148.699646px;font-style:normal;font-variant:normal;font-weight:bold;font-stretch:normal;text-align:start;line-height:125%;writing-mode:lr-tb;text-anchor:start;fill:black;fill-opacity:1;stroke:none;stroke-width:1pt;stroke-linecap:butt;stroke-linejoin:miter;stroke-opacity:1;font-family:Bitstream Vera Sans"
           id="path3793" />
        <path
           d="M -455.68828,510.59568 L -418.53017,510.59568 L -418.53017,522.88751 L -441.91945,522.88751 L -441.91945,535.96848 L -423.93976,535.96848 L -423.93976,546.92217 L -441.91945,546.92217 L -441.91945,561.36846 L -417.74337,561.36846 L -417.74337,573.66029 L -455.68828,573.66029 L -455.68828,510.59568"
           style="font-size:148.699646px;font-style:normal;font-variant:normal;font-weight:bold;font-stretch:normal;text-align:start;line-height:125%;writing-mode:lr-tb;text-anchor:start;fill:black;fill-opacity:1;stroke:none;stroke-width:1pt;stroke-linecap:butt;stroke-linejoin:miter;stroke-opacity:1;font-family:Bitstream Vera Sans"
           id="path3795" />
        <path
           d="M -647.94283,510.59568 L -639.25593,510.59568 L -611.80678,548.49651 L -611.80678,510.59568 L -600.09145,510.59568 L -600.09145,573.66029 L -608.77835,573.66029 L -636.22745,535.75946 L -636.22745,573.66029 L -647.94283,573.66029 L -647.94283,510.59568"
           style="font-size:148.699646px;font-style:normal;font-variant:normal;font-weight:bold;font-stretch:normal;text-align:start;line-height:125%;writing-mode:lr-tb;text-anchor:start;fill:black;fill-opacity:1;stroke:none;stroke-width:1pt;stroke-linecap:butt;stroke-linejoin:miter;stroke-opacity:1;font-family:Bitstream Vera Sans"
           id="path3791" />
      </g>
      <text
         x="-406.52405"
         y="527.92285"
         style="font-size:25.88836098px;font-style:normal;font-weight:normal;fill:black;fill-opacity:1;stroke:none;stroke-width:1pt;stroke-linecap:butt;stroke-linejoin:miter;stroke-opacity:1;font-family:Bitstream Vera Sans"
         id="text3797"
         xml:space="preserve"><tspan
           x="-406.52405"
           y="527.92285"
           style="letter-spacing:9.33191109"
           id="tspan3799"><tspan
             style="letter-spacing:0.21289776"
             id="tspan3801">TM</tspan></tspan></text>
    </g>
  </g>
</svg>
